<?xml version="1.0" encoding="UTF-8"?>
<svg width="334px" height="431px" viewBox="0 0 334 431" version="1.1" xmlns="http://www.w3.org/2000/svg" xmlns:xlink="http://www.w3.org/1999/xlink">
    <title>Group 17</title>
    <g id="Page-1" stroke="none" stroke-width="1" fill="none" fill-rule="evenodd">
        <g id="Group-17" transform="translate(165.500000, 215.000000) scale(-1, 1) translate(-165.500000, -215.000000) translate(0.000000, 2.000000)">
            <path d="M183,21 L195.464189,7.82109024 C195.843681,7.41983713 196.4766,7.4021965 196.877854,7.78168878 C196.907419,7.80965111 196.935251,7.8393921 196.961192,7.87074584 L207,20.0039137 L207,20.0039137" id="Path-5" stroke="#2547F6" stroke-width="5" stroke-linecap="round" transform="translate(195.000000, 14.000000) rotate(80.000000) translate(-195.000000, -14.000000) "></path>
            <path d="M191,134 L203.464189,120.82109 C203.843681,120.419837 204.4766,120.402197 204.877854,120.781689 C204.907419,120.809651 204.935251,120.839392 204.961192,120.870746 L215,133.003914 L215,133.003914" id="Path-5" stroke="#FF0149" stroke-width="5" stroke-linecap="round" transform="translate(203.000000, 127.000000) rotate(10.000000) translate(-203.000000, -127.000000) "></path>
            <path d="M30,191 L42.464189,177.82109 C42.8436813,177.419837 43.4766005,177.402197 43.8778536,177.781689 C43.9074193,177.809651 43.9352506,177.839392 43.9611923,177.870746 L54,190.003914 L54,190.003914" id="Path-5" stroke="#9502F3" stroke-width="5" stroke-linecap="round" transform="translate(42.000000, 184.000000) rotate(10.000000) translate(-42.000000, -184.000000) "></path>
            <path d="M150,189 L162.464189,175.82109 C162.843681,175.419837 163.4766,175.402197 163.877854,175.781689 C163.907419,175.809651 163.935251,175.839392 163.961192,175.870746 L174,188.003914 L174,188.003914" id="Path-5" stroke="#9502F3" stroke-width="5" stroke-linecap="round" transform="translate(162.000000, 182.000000) rotate(180.000000) translate(-162.000000, -182.000000) "></path>
            <path d="M146,310 L158.464189,296.82109 C158.843681,296.419837 159.4766,296.402197 159.877854,296.781689 C159.907419,296.809651 159.935251,296.839392 159.961192,296.870746 L170,309.003914 L170,309.003914" id="Path-5" stroke="#9502F3" stroke-width="5" stroke-linecap="round" transform="translate(158.000000, 303.000000) rotate(40.000000) translate(-158.000000, -303.000000) "></path>
            <path d="M255,45 L267.464189,31.8210902 C267.843681,31.4198371 268.4766,31.4021965 268.877854,31.7816888 C268.907419,31.8096511 268.935251,31.8393921 268.961192,31.8707458 L279,44.0039137 L279,44.0039137" id="Path-5" stroke="#FAAA04" stroke-width="5" stroke-linecap="round" transform="translate(267.000000, 38.000000) scale(1, -1) rotate(40.000000) translate(-267.000000, -38.000000) "></path>
            <path d="M83,151 L95.464189,137.82109 C95.8436813,137.419837 96.4766005,137.402197 96.8778536,137.781689 C96.9074193,137.809651 96.9352506,137.839392 96.9611923,137.870746 L107,150.003914 L107,150.003914" id="Path-5" stroke="#FAAA04" stroke-width="5" stroke-linecap="round" transform="translate(95.000000, 144.000000) scale(1, -1) rotate(70.000000) translate(-95.000000, -144.000000) "></path>
            <path d="M285,94 L297.464189,80.8210902 C297.843681,80.4198371 298.4766,80.4021965 298.877854,80.7816888 C298.907419,80.8096511 298.935251,80.8393921 298.961192,80.8707458 L309,93.0039137 L309,93.0039137" id="Path-5" stroke="#FF0149" stroke-width="5" stroke-linecap="round" transform="translate(297.000000, 87.000000) rotate(180.000000) translate(-297.000000, -87.000000) "></path>
            <path d="M274,323 L286.464189,309.82109 C286.843681,309.419837 287.4766,309.402197 287.877854,309.781689 C287.907419,309.809651 287.935251,309.839392 287.961192,309.870746 L298,322.003914 L298,322.003914" id="Path-5" stroke="#FF0149" stroke-width="5" stroke-linecap="round" transform="translate(286.000000, 316.000000) rotate(70.000000) translate(-286.000000, -316.000000) "></path>
            <path d="M232,173 L244.464189,159.82109 C244.843681,159.419837 245.4766,159.402197 245.877854,159.781689 C245.907419,159.809651 245.935251,159.839392 245.961192,159.870746 L256,172.003914 L256,172.003914" id="Path-5" stroke="#03C1D6" stroke-width="5" stroke-linecap="round" transform="translate(244.000000, 166.000000) rotate(180.000000) translate(-244.000000, -166.000000) "></path>
            <path d="M65,256 L77.464189,242.82109 C77.8436813,242.419837 78.4766005,242.402197 78.8778536,242.781689 C78.9074193,242.809651 78.9352506,242.839392 78.9611923,242.870746 L89,255.003914 L89,255.003914" id="Path-5" stroke="#03C1D6" stroke-width="5" stroke-linecap="round" transform="translate(77.000000, 249.000000) rotate(80.000000) translate(-77.000000, -249.000000) "></path>
            <path d="M173.576401,232 L168.018992,240.450532 C167.71553,240.911974 167.843597,241.532052 168.305039,241.835515 C168.468205,241.942819 168.659219,242 168.854507,242 L227.980372,242 C228.532657,242 228.980372,241.552285 228.980372,241 C228.980372,240.780964 228.908457,240.567986 228.775674,240.393786 L222.377566,232 L222.377566,232" id="Path-6" stroke="#FAAA04" stroke-width="6" stroke-linecap="round" transform="translate(198.500000, 237.000000) scale(-1, 1) translate(-198.500000, -237.000000) "></path>
            <path d="M87.5764012,277 L82.0189923,285.450532 C81.7155295,285.911974 81.843597,286.532052 82.3050391,286.835515 C82.468205,286.942819 82.6592192,287 82.8545071,287 L141.980372,287 C142.532657,287 142.980372,286.552285 142.980372,286 C142.980372,285.780964 142.908457,285.567986 142.775674,285.393786 L136.377566,277 L136.377566,277" id="Path-6" stroke="#FF0149" stroke-width="6" stroke-linecap="round" transform="translate(112.500000, 282.000000) scale(-1, 1) rotate(50.000000) translate(-112.500000, -282.000000) "></path>
            <path d="M148.576401,78 L143.018992,86.450532 C142.71553,86.911974 142.843597,87.5320519 143.305039,87.8355147 C143.468205,87.9428192 143.659219,88 143.854507,88 L202.980372,88 C203.532657,88 203.980372,87.5522847 203.980372,87 C203.980372,86.780964 203.908457,86.5679862 203.775674,86.3937864 L197.377566,78 L197.377566,78" id="Path-6" stroke="#03C1D6" stroke-width="6" stroke-linecap="round" transform="translate(173.500000, 83.000000) scale(1, -1) rotate(30.000000) translate(-173.500000, -83.000000) "></path>
            <path d="M201.576401,389 L196.018992,397.450532 C195.71553,397.911974 195.843597,398.532052 196.305039,398.835515 C196.468205,398.942819 196.659219,399 196.854507,399 L255.980372,399 C256.532657,399 256.980372,398.552285 256.980372,398 C256.980372,397.780964 256.908457,397.567986 256.775674,397.393786 L250.377566,389 L250.377566,389" id="Path-6" stroke="#03C1D6" stroke-width="6" stroke-linecap="round" transform="translate(226.500000, 394.000000) scale(1, -1) rotate(100.000000) translate(-226.500000, -394.000000) "></path>
            <path d="M123.576401,379 L118.018992,387.450532 C117.71553,387.911974 117.843597,388.532052 118.305039,388.835515 C118.468205,388.942819 118.659219,389 118.854507,389 L177.980372,389 C178.532657,389 178.980372,388.552285 178.980372,388 C178.980372,387.780964 178.908457,387.567986 178.775674,387.393786 L172.377566,379 L172.377566,379" id="Path-6" stroke="#2547F6" stroke-width="6" stroke-linecap="round" transform="translate(148.500000, 384.000000) scale(1, -1) rotate(30.000000) translate(-148.500000, -384.000000) "></path>
            <path d="M274.576401,163 L269.018992,171.450532 C268.71553,171.911974 268.843597,172.532052 269.305039,172.835515 C269.468205,172.942819 269.659219,173 269.854507,173 L328.980372,173 C329.532657,173 329.980372,172.552285 329.980372,172 C329.980372,171.780964 329.908457,171.567986 329.775674,171.393786 L323.377566,163 L323.377566,163" id="Path-6" stroke="#9502F3" stroke-width="6" stroke-linecap="round" transform="translate(299.500000, 168.000000) rotate(50.000000) translate(-299.500000, -168.000000) "></path>
            <path d="M5.57640117,89 L0.0189923284,97.450532 C-0.284470478,97.911974 -0.156402994,98.5320519 0.30503906,98.8355147 C0.468204967,98.9428192 0.659219195,99 0.854507078,99 L59.9803725,99 C60.5326572,99 60.9803725,98.5522847 60.9803725,98 C60.9803725,97.780964 60.908457,97.5679862 60.7756744,97.3937864 L54.3775664,89 L54.3775664,89" id="Path-6" stroke="#2547F6" stroke-width="6" stroke-linecap="round" transform="translate(30.500000, 94.000000) rotate(-30.000000) translate(-30.500000, -94.000000) "></path>
            <circle id="Oval" fill="#2547F6" cx="252.5" cy="201.5" r="3.5"></circle>
            <circle id="Oval" fill="#2547F6" transform="translate(207.000000, 294.000000) scale(-1, 1) translate(-207.000000, -294.000000) " cx="207" cy="294" r="4"></circle>
            <circle id="Oval" fill="#2547F6" cx="239.5" cy="91.5" r="4.5"></circle>
            <circle id="Oval" fill="#2547F6" cx="325.5" cy="27.5" r="4.5"></circle>
            <circle id="Oval" fill="#2547F6" cx="284.5" cy="261.5" r="4.5"></circle>
            <circle id="Oval" fill="#2547F6" cx="235.5" cy="333.5" r="3.5"></circle>
            <circle id="Oval" fill="#2547F6" cx="116.5" cy="38.5" r="4.5"></circle>
            <circle id="Oval" fill="#2547F6" cx="146" cy="144" r="3"></circle>
            <circle id="Oval" fill="#2547F6" cx="33" cy="263" r="3"></circle>
            <circle id="Oval" fill="#2547F6" cx="131" cy="212" r="4"></circle>
        </g>
    </g>
</svg>